<svg width="16" height="16" viewBox="0 0 16 16" fill="none" xmlns="http://www.w3.org/2000/svg">
<path d="M13.2914 1.56782C13.6201 1.43247 13.9875 1.52915 14.2388 1.74183C14.4902 1.99318 14.5675 2.37988 14.4322 2.70858L9.48243 15.0829C9.44376 15.199 9.38576 15.2956 9.30842 15.373C9.1344 15.547 8.88305 15.6437 8.6317 15.6243C8.28367 15.6243 7.95497 15.373 7.83896 15.0249L6.19549 9.78517L0.975055 8.16103C0.627026 8.04502 0.375672 7.71633 0.356337 7.34897C0.337002 7.09761 0.453012 6.86559 0.627026 6.69158C0.704366 6.61424 0.801041 6.55623 0.917051 6.51756L13.2914 1.56782ZM2.54119 7.29096L6.52419 8.5284L11.2806 3.772L2.54119 7.29096ZM7.45226 9.45648L8.70904 13.4588L12.2087 4.70008L7.45226 9.45648Z" fill="white"/>
</svg>
